<svg xmlns="http://www.w3.org/2000/svg" viewBox="0 0 512 512" style="enable-background:new 0 0 512 512" xml:space="preserve"><path d="m269.491 291.727-70.911 21.756 21.84-71.182a45.115 45.115 0 0 0-2.055-.042c-28.202 0-51.147 22.956-51.147 51.157s22.945 51.147 51.147 51.147c28.212 0 51.157-22.945 51.157-51.147 0-.563-.01-1.126-.031-1.689z"/><path d="m333.706 254.441-25.365 25.365-8.271 2.534c.49 3.65.741 7.342.741 11.076 0 45.463-36.983 82.436-82.446 82.436-45.452 0-82.436-36.973-82.436-82.436s36.983-82.446 82.436-82.446c3.838 0 7.655.261 11.42.793l2.472-8.041 25.5-25.5a122.019 122.019 0 0 0-39.393-6.539c-67.115 0-121.724 54.609-121.724 121.734s54.609 121.734 121.724 121.734c67.125 0 121.734-54.609 121.734-121.734a122.1 122.1 0 0 0-6.392-38.976z"/><path d="m255.275 235.386-9.48 30.882 30.475-9.345zM435.916.073l-41.52 41.52 10.992 11.129 10.993 11.128 31.644 32.04 10.993 11.128 10.992 11.129L512 76.157z"/><path d="M394.698 193.459h-.01l-11.556 11.556-25.323 25.334a153.464 153.464 0 0 1 13.579 63.068c0 84.375-68.648 153.023-153.023 153.023S65.352 377.792 65.352 293.416s68.637-153.023 153.013-153.023c21.944 0 43.648 4.735 63.464 13.757h.01l25.25-25.26h.01l11.546-11.556 11.379-11.368a194.17 194.17 0 0 1 6.466 4.005 200.04 200.04 0 0 1 6.957 4.693 210.854 210.854 0 0 1 12.599 9.522l-2.67 2.67-8.375 8.375-72.747 72.747 31.424 32.248 61.941-61.941 11.201-11.191v-.01l11.045-11.045h.01a220.616 220.616 0 0 1 18.2 26.042l41.812-41.812-10.993-11.128-10.993-11.128-31.643-32.04-10.993-11.128-11.003-11.128-41.009 41.02-1.231 1.22c-32.697-19.535-70.89-30.767-111.659-30.767C97.965 75.187 0 173.152 0 293.562c0 120.399 97.965 218.365 218.365 218.365 120.41 0 218.375-97.965 218.375-218.365 0-40.696-11.191-78.827-30.663-111.482l-11.379 11.379z"/></svg>